<svg width="32" height="32" viewBox="0 0 32 32" fill="none" xmlns="http://www.w3.org/2000/svg">
<path d="M27.7125 16.7125L18.7125 25.7125C18.5214 25.8973 18.2659 26.0007 18 26.0007C17.7341 26.0007 17.4786 25.8973 17.2875 25.7125C17.0997 25.5229 16.9944 25.2669 16.9944 25C16.9944 24.7332 17.0997 24.4771 17.2875 24.2875L24.5875 17H5C4.73478 17 4.48043 16.8947 4.29289 16.7071C4.10536 16.5196 4 16.2652 4 16C4 15.7348 4.10536 15.4805 4.29289 15.2929C4.48043 15.1054 4.73478 15 5 15H24.5875L17.2875 7.71252C17.128 7.51823 17.0465 7.27156 17.0589 7.02051C17.0712 6.76946 17.1765 6.53197 17.3542 6.35423C17.5319 6.1765 17.7694 6.07123 18.0205 6.0589C18.2715 6.04657 18.5182 6.12806 18.7125 6.28752L27.7125 15.2875C27.9003 15.4771 28.0056 15.7332 28.0056 16C28.0056 16.2669 27.9003 16.5229 27.7125 16.7125V16.7125Z" fill="black"/>
</svg>
