<svg width="30" height="26" viewBox="0 0 30 26" fill="none" xmlns="http://www.w3.org/2000/svg">
<path d="M30 13.4998C30.0001 12.1751 29.6242 10.8775 28.9162 9.75787C28.2081 8.63825 27.1969 7.74253 26 7.17479V5.99978C25.9991 4.7112 25.5834 3.45714 24.8144 2.42318C24.0454 1.38922 22.9639 0.630307 21.73 0.258749C20.4962 -0.112809 19.1755 -0.0772693 17.9634 0.360109C16.7513 0.797487 15.7123 1.61346 15 2.68728C14.2877 1.61346 13.2486 0.797487 12.0365 0.360109C10.8244 -0.0772693 9.50374 -0.112809 8.26989 0.258749C7.03603 0.630307 5.95458 1.38922 5.18557 2.42318C4.41656 3.45714 4.00085 4.7112 3.99996 5.99978V7.17479C2.80288 7.74239 1.79146 8.63805 1.08322 9.75769C0.374986 10.8773 -0.000976562 12.175 -0.000976562 13.4998C-0.000976562 14.8246 0.374986 16.1222 1.08322 17.2419C1.79146 18.3615 2.80288 19.2572 3.99996 19.8248V19.9998C4.00085 21.2884 4.41656 22.5424 5.18557 23.5764C5.95458 24.6103 7.03603 25.3693 8.26989 25.7408C9.50374 26.1124 10.8244 26.0768 12.0365 25.6395C13.2486 25.2021 14.2877 24.3861 15 23.3123C15.7123 24.3861 16.7513 25.2021 17.9634 25.6395C19.1755 26.0768 20.4962 26.1124 21.73 25.7408C22.9639 25.3693 24.0454 24.6103 24.8144 23.5764C25.5834 22.5424 25.9991 21.2884 26 19.9998V19.8248C27.1959 19.2558 28.2063 18.3598 28.9142 17.2405C29.6221 16.1211 29.9986 14.8242 30 13.4998ZM9.99996 23.9998C9.01309 23.9992 8.06126 23.6338 7.3275 22.9739C6.59373 22.314 6.12982 21.4061 6.02496 20.4248C6.34746 20.4756 6.67349 20.5007 6.99996 20.4998H7.99996C8.26518 20.4998 8.51953 20.3944 8.70707 20.2069C8.89461 20.0194 8.99996 19.765 8.99996 19.4998C8.99996 19.2346 8.89461 18.9802 8.70707 18.7927C8.51953 18.6051 8.26518 18.4998 7.99996 18.4998H6.99996C5.82161 18.4978 4.68183 18.0797 3.78171 17.3192C2.88158 16.5588 2.27896 15.5048 2.08015 14.3434C1.88134 13.1819 2.09913 11.9876 2.69508 10.971C3.29104 9.95449 4.22686 9.18109 5.33746 8.78728C5.53179 8.7157 5.6995 8.58624 5.81796 8.41637C5.93642 8.2465 5.99995 8.04438 5.99996 7.83728V5.99978C5.99996 4.93892 6.42139 3.9215 7.17154 3.17136C7.92168 2.42121 8.9391 1.99978 9.99996 1.99978C11.0608 1.99978 12.0782 2.42121 12.8284 3.17136C13.5785 3.9215 14 4.93892 14 5.99978V15.5373C12.9052 14.5437 11.4784 13.9953 9.99996 13.9998C9.73475 13.9998 9.48039 14.1051 9.29286 14.2927C9.10532 14.4802 8.99996 14.7346 8.99996 14.9998C8.99996 15.265 9.10532 15.5194 9.29286 15.7069C9.48039 15.8944 9.73475 15.9998 9.99996 15.9998C11.0608 15.9998 12.0782 16.4212 12.8284 17.1714C13.5785 17.9215 14 18.9389 14 19.9998C14 21.0607 13.5785 22.0781 12.8284 22.8282C12.0782 23.5784 11.0608 23.9998 9.99996 23.9998ZM23 18.4998H22C21.7348 18.4998 21.4804 18.6051 21.2929 18.7927C21.1053 18.9802 21 19.2346 21 19.4998C21 19.765 21.1053 20.0194 21.2929 20.2069C21.4804 20.3944 21.7348 20.4998 22 20.4998H23C23.3264 20.5007 23.6525 20.4756 23.975 20.4248C23.8928 21.1935 23.5897 21.922 23.1022 22.522C22.6147 23.122 21.9638 23.568 21.2282 23.8058C20.4926 24.0436 19.7038 24.0632 18.9573 23.8621C18.2108 23.6611 17.5386 23.248 17.0219 22.6729C16.5053 22.0977 16.1664 21.3852 16.0462 20.6215C15.9261 19.8578 16.0298 19.0756 16.3449 18.3696C16.6599 17.6637 17.1728 17.0641 17.8215 16.6435C18.4702 16.2229 19.2269 15.9993 20 15.9998C20.2652 15.9998 20.5195 15.8944 20.7071 15.7069C20.8946 15.5194 21 15.265 21 14.9998C21 14.7346 20.8946 14.4802 20.7071 14.2927C20.5195 14.1051 20.2652 13.9998 20 13.9998C18.5215 13.9953 17.0948 14.5437 16 15.5373V5.99978C16 4.93892 16.4214 3.9215 17.1715 3.17136C17.9217 2.42121 18.9391 1.99978 20 1.99978C21.0608 1.99978 22.0782 2.42121 22.8284 3.17136C23.5785 3.9215 24 4.93892 24 5.99978V7.83728C24 8.04438 24.0635 8.2465 24.182 8.41637C24.3004 8.58624 24.4681 8.7157 24.6625 8.78728C25.7731 9.18109 26.7089 9.95449 27.3048 10.971C27.9008 11.9876 28.1186 13.1819 27.9198 14.3434C27.721 15.5048 27.1183 16.5588 26.2182 17.3192C25.3181 18.0797 24.1783 18.4978 23 18.4998ZM6.49996 12.9998C6.23475 12.9998 5.98039 12.8944 5.79286 12.7069C5.60532 12.5194 5.49996 12.265 5.49996 11.9998C5.49996 11.7346 5.60532 11.4802 5.79286 11.2927C5.98039 11.1051 6.23475 10.9998 6.49996 10.9998C7.16199 10.9965 7.79597 10.7321 8.2641 10.2639C8.73223 9.79579 8.99668 9.16181 8.99996 8.49978V7.49978C8.99996 7.23457 9.10532 6.98021 9.29286 6.79268C9.48039 6.60514 9.73475 6.49978 9.99996 6.49978C10.2652 6.49978 10.5195 6.60514 10.7071 6.79268C10.8946 6.98021 11 7.23457 11 7.49978V8.49978C11 9.69326 10.5259 10.8379 9.68194 11.6818C8.83803 12.5257 7.69344 12.9998 6.49996 12.9998ZM24.5 11.9998C24.5 12.265 24.3946 12.5194 24.2071 12.7069C24.0195 12.8944 23.7652 12.9998 23.5 12.9998C22.3065 12.9998 21.1619 12.5257 20.318 11.6818C19.4741 10.8379 19 9.69326 19 8.49978V7.49978C19 7.23457 19.1053 6.98021 19.2929 6.79268C19.4804 6.60514 19.7348 6.49978 20 6.49978C20.2652 6.49978 20.5195 6.60514 20.7071 6.79268C20.8946 6.98021 21 7.23457 21 7.49978V8.49978C21.0033 9.16181 21.2677 9.79579 21.7358 10.2639C22.204 10.7321 22.8379 10.9965 23.5 10.9998C23.7652 10.9998 24.0195 11.1051 24.2071 11.2927C24.3946 11.4802 24.5 11.7346 24.5 11.9998Z" fill="#471515"/>
</svg>
