<svg width="32" height="32" viewBox="0 0 32 32" fill="none" xmlns="http://www.w3.org/2000/svg">
<path d="M31.65 16C31.6515 16.3352 31.5688 16.6654 31.4093 16.9603C31.2499 17.2552 31.0189 17.5052 30.7375 17.6875L19.5875 24.85C19.2849 25.0461 18.935 25.1567 18.5747 25.1701C18.2144 25.1836 17.8572 25.0994 17.5408 24.9265C17.2244 24.7536 16.9607 24.4984 16.7775 24.1878C16.5943 23.8773 16.4984 23.523 16.5 23.1625V17.8375L5.58752 24.85C5.28494 25.0461 4.93499 25.1567 4.5747 25.1701C4.21441 25.1836 3.85717 25.0994 3.5408 24.9265C3.22443 24.7536 2.96069 24.4984 2.77747 24.1878C2.59426 23.8773 2.49839 23.523 2.50002 23.1625V8.83751C2.49839 8.47697 2.59426 8.1227 2.77747 7.81218C2.96069 7.50165 3.22443 7.24643 3.5408 7.07352C3.85717 6.9006 4.21441 6.81642 4.5747 6.82989C4.93499 6.84335 5.28494 6.95396 5.58752 7.15001L16.5 14.1625V8.83751C16.4984 8.47697 16.5943 8.1227 16.7775 7.81218C16.9607 7.50165 17.2244 7.24643 17.5408 7.07352C17.8572 6.9006 18.2144 6.81642 18.5747 6.82989C18.935 6.84335 19.2849 6.95396 19.5875 7.15001L30.7375 14.3125C31.0189 14.4948 31.2499 14.7448 31.4093 15.0397C31.5688 15.3346 31.6515 15.6648 31.65 16Z" fill="black"/>
</svg>
