<svg width="32" height="32" viewBox="0 0 32 32" fill="none" xmlns="http://www.w3.org/2000/svg">
<path d="M27 5H5C4.46957 5 3.96086 5.21071 3.58579 5.58579C3.21071 5.96086 3 6.46957 3 7V25C3 25.5304 3.21071 26.0391 3.58579 26.4142C3.96086 26.7893 4.46957 27 5 27H27C27.5304 27 28.0391 26.7893 28.4142 26.4142C28.7893 26.0391 29 25.5304 29 25V7C29 6.46957 28.7893 5.96086 28.4142 5.58579C28.0391 5.21071 27.5304 5 27 5V5ZM23 17C23 17.2652 22.8946 17.5196 22.7071 17.7071C22.5196 17.8946 22.2652 18 22 18H12.4125L13.7125 19.2875C13.9003 19.4771 14.0056 19.7332 14.0056 20C14.0056 20.2668 13.9003 20.5229 13.7125 20.7125C13.5214 20.8973 13.2659 21.0006 13 21.0006C12.7341 21.0006 12.4786 20.8973 12.2875 20.7125L9.2875 17.7125C9.09972 17.5229 8.99437 17.2668 8.99437 17C8.99437 16.7332 9.09972 16.4771 9.2875 16.2875L12.2875 13.2875C12.4818 13.128 12.7285 13.0465 12.9795 13.0589C13.2306 13.0712 13.4681 13.1765 13.6458 13.3542C13.8235 13.5319 13.9288 13.7694 13.9411 14.0205C13.9535 14.2715 13.872 14.5182 13.7125 14.7125L12.4125 16H21V13C21 12.7348 21.1054 12.4804 21.2929 12.2929C21.4804 12.1054 21.7348 12 22 12C22.2652 12 22.5196 12.1054 22.7071 12.2929C22.8946 12.4804 23 12.7348 23 13V17Z" fill="black"/>
</svg>
