<svg width="32" height="32" viewBox="0 0 32 32" fill="none" xmlns="http://www.w3.org/2000/svg">
<path d="M29.6876 13.0375C29.6565 12.8977 29.5958 12.7662 29.5095 12.6519C29.4233 12.5376 29.3135 12.4432 29.1876 12.375L26.2126 10.725C26.0531 10.4016 25.8736 10.0885 25.6751 9.78748L25.7376 6.38748C25.7387 6.24487 25.7104 6.10356 25.6545 5.97236C25.5986 5.84117 25.5162 5.72291 25.4126 5.62498C23.9313 4.28193 22.1795 3.27177 20.2751 2.66248C20.1383 2.61983 19.994 2.6067 19.8518 2.62393C19.7096 2.64117 19.5727 2.68839 19.4501 2.76248L16.5376 4.51248C16.1751 4.49998 15.8251 4.49998 15.4626 4.51248L12.5501 2.76248C12.4274 2.68839 12.2905 2.64117 12.1483 2.62393C12.0061 2.6067 11.8618 2.61983 11.7251 2.66248C9.81814 3.27224 8.0656 4.28709 6.58756 5.63748C6.48298 5.73204 6.39987 5.84791 6.34381 5.97727C6.28775 6.10664 6.26005 6.24651 6.26256 6.38748L6.32506 9.78748C6.12506 10.0875 5.95006 10.4 5.77506 10.725L2.80005 12.375C2.67596 12.4439 2.56817 12.5387 2.48404 12.6531C2.39992 12.7674 2.34142 12.8985 2.31255 13.0375C1.88751 14.9896 1.88751 17.0103 2.31255 18.9625C2.3436 19.1023 2.40431 19.2338 2.49057 19.3481C2.57684 19.4623 2.68664 19.5568 2.81255 19.625L5.78756 21.275C5.94704 21.5984 6.12655 21.9115 6.32506 22.2125L6.26256 25.6125C6.26141 25.7551 6.28968 25.8964 6.3456 26.0276C6.40152 26.1588 6.48389 26.277 6.58756 26.375C8.06885 27.718 9.82065 28.7282 11.7251 29.3375C11.8618 29.3801 12.0061 29.3933 12.1483 29.376C12.2905 29.3588 12.4274 29.3116 12.5501 29.2375L15.4626 27.4875H16.5376L19.4626 29.2375C19.6146 29.3375 19.7931 29.3897 19.9751 29.3875C20.0767 29.3831 20.1775 29.3663 20.2751 29.3375C22.182 28.7277 23.9345 27.7129 25.4126 26.3625C25.5171 26.2679 25.6002 26.1521 25.6563 26.0227C25.7124 25.8933 25.7401 25.7534 25.7376 25.6125L25.6751 22.2125C25.8751 21.9125 26.0501 21.6 26.2251 21.275L29.2001 19.625C29.3242 19.5561 29.4319 19.4612 29.5161 19.3469C29.6002 19.2326 29.6587 19.1015 29.6876 18.9625C30.1126 17.0103 30.1126 14.9896 29.6876 13.0375V13.0375ZM16.0001 21.5C14.9123 21.5 13.8489 21.1774 12.9444 20.5731C12.04 19.9687 11.335 19.1097 10.9187 18.1047C10.5024 17.0997 10.3935 15.9939 10.6057 14.927C10.818 13.8601 11.3418 12.8801 12.111 12.1109C12.8802 11.3417 13.8602 10.8179 14.9271 10.6057C15.994 10.3934 17.0998 10.5024 18.1048 10.9186C19.1098 11.3349 19.9688 12.0399 20.5731 12.9443C21.1775 13.8488 21.5001 14.9122 21.5001 16C21.5001 17.4587 20.9206 18.8576 19.8891 19.8891C18.8577 20.9205 17.4587 21.5 16.0001 21.5Z" fill="black"/>
</svg>
